The parameters for ffmpeg when want to play in Windows7 with MediaPlayer <body> I always convert videos in Mac and let them can play in windows7 with MS media player, there is 50 to 50 percent chance that which cannot play with MS Media Player. I have no idea about it.  The following is the one:  precodeffmpeg -i xx.mp4 -c:v libx264 -profile:v baseline -level:v 3.1 -vf scale=800:-1 -c:a libmp3lame -r 25 yy.mp4  Metadata:     major_brand     : isom     minor_version   : 512     compatible_brands: isomiso2avc1mp41     encoder         : Lavf57.25.100   Duration: 00:02:39.76, start: 0.023021, bitrate: 895 kb/s     Stream #0:0(eng): Video: h264 (Constrained Baseline) (avc1 / 0x31637661), yuv420p, 800x450 [SAR 1:1 DAR 16:9], 763 kb/s, 25 fps, 25 tbr, 12800 tbn, 50 tbc (default)     Metadata:       handler_name    : VideoHandler     Stream #0:1(eng): Audio: mp3 (mp4a / 0x6134706D), 48000 Hz, stereo, s16p, 128 kb/s (default)     Metadata:       handler_name    : SoundHandler /code/pre  <comment337343> I think this question would be better suited in the Video Production site.